<svg width="24" height="26" viewBox="0 0 24 26" fill="none" xmlns="http://www.w3.org/2000/svg"><g filter="url(#a)"><path fill-rule="evenodd" clip-rule="evenodd" d="M14.5 7.5 12 10 9.5 7.5a.707.707 0 0 0-1 1l2.793 2.793a1 1 0 0 0 1.414 0L15.5 8.5a.707.707 0 0 0-1-1Zm0 6L12 16l-2.5-2.5a.707.707 0 0 0-1 1l2.793 2.793a1 1 0 0 0 1.414 0L15.5 14.5a.707.707 0 0 0-1-1Z" fill="#41F6D7"/></g><defs><filter id="a" x="4.293" y="7.293" width="15.414" height="18.293" filterUnits="userSpaceOnUse" color-interpolation-filters="sRGB"><feFlood flood-opacity="0" result="BackgroundImageFix"/><feColorMatrix in="SourceAlpha" values="0 0 0 0 0 0 0 0 0 0 0 0 0 0 0 0 0 0 127 0" result="hardAlpha"/><feOffset dy="4"/><feGaussianBlur stdDeviation="2"/><feComposite in2="hardAlpha" operator="out"/><feColorMatrix values="0 0 0 0 0 0 0 0 0 0 0 0 0 0 0 0 0 0 0.25 0"/><feBlend in2="BackgroundImageFix" result="effect1_dropShadow_0_500"/><feColorMatrix in="SourceAlpha" values="0 0 0 0 0 0 0 0 0 0 0 0 0 0 0 0 0 0 127 0" result="hardAlpha"/><feOffset dy="4"/><feGaussianBlur stdDeviation="2"/><feComposite in2="hardAlpha" operator="out"/><feColorMatrix values="0 0 0 0 0 0 0 0 0 0 0 0 0 0 0 0 0 0 0.25 0"/><feBlend in2="effect1_dropShadow_0_500" result="effect2_dropShadow_0_500"/><feBlend in="SourceGraphic" in2="effect2_dropShadow_0_500" result="shape"/></filter></defs></svg>